<svg width="144" height="40" viewBox="0 0 144 40" fill="none" xmlns="http://www.w3.org/2000/svg">
<path fill-rule="evenodd" clip-rule="evenodd" d="M13.1533 3.58823C15.3006 2.6955 17.602 2.23602 19.9262 2.23603C22.2504 2.23603 24.5518 2.6955 26.6991 3.58823C28.8464 4.48095 30.7974 5.78944 32.4409 7.43898C34.0843 9.08851 35.388 11.0468 36.2774 13.202C37.1668 15.3573 37.6246 17.6672 37.6246 20C37.6246 21.5957 37.4104 23.1807 36.9904 24.7128C37.6605 24.8 38.4663 25.2969 39.0554 25.8C39.6586 23.8678 39.8524 22.0317 39.8524 20C39.8524 17.3736 39.337 14.7728 38.3356 12.3463C37.3342 9.91982 35.8665 7.71504 34.0162 5.85787C32.1658 4.00069 29.9692 2.52751 27.5516 1.52241C25.1341 0.517316 22.5429 0 19.9262 0C17.3095 0 14.7183 0.517315 12.3008 1.52241C9.88322 2.5275 7.68657 4.00069 5.83625 5.85786C3.98593 7.71504 2.51818 9.91982 1.51679 12.3463C0.515407 14.7728 0 17.3736 0 20C0 22.6264 0.515406 25.2272 1.51679 27.6537C2.51818 30.0802 3.98593 32.285 5.83625 34.1421C7.68657 35.9993 9.88321 37.4725 12.3008 38.4776C14.7183 39.4827 17.3095 40 19.9262 40C22.2042 40 24.31 39.8 26.7011 38.8C26.1774 38.2277 25.6662 37.8256 25.2395 37.1361C23.5129 37.6 21.7416 37.764 19.9262 37.764C17.602 37.764 15.3006 37.3045 13.1533 36.4118C11.006 35.5191 9.05497 34.2106 7.41152 32.561C5.76807 30.9115 4.46441 28.9532 3.57499 26.798C2.68556 24.6428 2.22777 22.3328 2.22777 20C2.22777 17.6672 2.68556 15.3572 3.57499 13.202C4.46442 11.0468 5.76807 9.08851 7.41152 7.43897C9.05498 5.78943 11.006 4.48095 13.1533 3.58823Z" fill="white"/>
<path d="M38.8623 32.795C38.8623 35.9509 36.3133 38.5093 33.1691 38.5093C30.0248 38.5093 27.4759 35.9509 27.4759 32.795C27.4759 29.6391 30.0248 27.0807 33.1691 27.0807C36.3133 27.0807 38.8623 29.6391 38.8623 32.795Z" fill="white"/>
<path d="M57.6247 36.963V38.5486H48.3542V26.2222H57.6037V27.8248H50.4144V31.5926H56.889V33.0929H50.4144V36.963H57.6247Z" fill="white"/>
<path d="M75.9434 26.2222V38.5486H73.9043L66.1263 28.933V38.5486H64.0662V26.2222H66.1263L73.9043 35.8378V26.2222H75.9434Z" fill="white"/>
<path d="M91.8201 36.963V38.5486H82.5496V26.2222H91.7991V27.8248H84.6097V31.5926H91.0843V33.0929H84.6097V36.963H91.8201Z" fill="white"/>
<path d="M108.908 38.5486H106.575L103.863 33.6555H99.9111V38.5486H97.851V26.2222H103.674C105.356 26.2222 106.645 26.5462 107.542 27.194C108.439 27.8419 108.887 28.7511 108.887 29.9218C108.887 30.8084 108.628 31.5528 108.109 32.1552C107.591 32.7576 106.869 33.1725 105.944 33.3998L108.908 38.5486ZM106.701 29.9389C106.701 29.2569 106.435 28.7227 105.902 28.3363C105.384 27.9385 104.641 27.7396 103.674 27.7396H99.9111V32.1552H103.674C104.683 32.1552 105.44 31.9563 105.944 31.5585C106.449 31.1607 106.701 30.6208 106.701 29.9389Z" fill="white"/>
<path d="M127.705 31.6608V38.5656H125.898L125.813 36.963C125.323 37.5427 124.629 37.986 123.732 38.2928C122.835 38.5997 121.861 38.7532 120.81 38.7532C119.773 38.7645 118.82 38.6168 117.951 38.3099C117.082 37.9916 116.333 37.5541 115.702 36.9971C115.071 36.4288 114.581 35.7582 114.231 34.9854C113.88 34.2011 113.712 33.3487 113.726 32.428C113.712 31.5074 113.88 30.6549 114.231 29.8707C114.595 29.0751 115.099 28.3874 115.744 27.8078C116.403 27.2281 117.188 26.7792 118.099 26.4609C119.023 26.1427 120.039 25.9892 121.147 26.0006C122.716 26.0006 124.055 26.2961 125.162 26.8871C126.283 27.4668 127.061 28.2681 127.495 29.291L125.666 29.9389C125.302 29.1433 124.72 28.5522 123.921 28.1658C123.137 27.7794 122.219 27.5861 121.168 27.5861C120.355 27.5861 119.619 27.7055 118.96 27.9442C118.302 28.1715 117.741 28.5011 117.279 28.933C116.816 29.3535 116.459 29.865 116.207 30.4674C115.954 31.0584 115.828 31.7233 115.828 32.4621C115.828 33.1895 115.954 33.8488 116.207 34.4398C116.459 35.0195 116.809 35.5139 117.258 35.9231C117.72 36.3209 118.26 36.6277 118.876 36.8437C119.507 37.0596 120.201 37.1676 120.957 37.1676C122.093 37.1676 123.151 36.9346 124.132 36.4686C125.099 35.9912 125.645 35.1843 125.771 34.0477V33.1441H120.705V31.6608H127.705Z" fill="white"/>
<path d="M133.952 26.2222L137.841 31.8825L141.73 26.2222H144L138.871 33.5021V38.5486H136.79V33.5021L131.618 26.2222H133.952Z" fill="white"/>
</svg>
