<svg width="200" height="55" viewBox="0 0 200 55" fill="black" xmlns="http://www.w3.org/2000/svg">
<path fill-rule="evenodd" clip-rule="evenodd" d="M18.2685 4.93381C21.2508 3.70632 24.4472 3.07453 27.6753 3.07453C30.9033 3.07453 34.0998 3.70632 37.0821 4.93381C40.0644 6.16131 42.7742 7.96048 45.0568 10.2286C47.3393 12.4967 49.15 15.1893 50.3853 18.1528C51.6206 21.1162 52.2564 24.2924 52.2564 27.5C52.2564 29.6941 51.9589 31.8734 51.3756 33.98C52.3063 34.1 53.4255 34.7833 54.2435 35.475C55.0814 32.8182 55.3505 30.2936 55.3505 27.5C55.3505 23.8887 54.6347 20.3127 53.2439 16.9762C51.8531 13.6398 49.8145 10.6082 47.2447 8.05457C44.6748 5.50095 41.6239 3.47532 38.2661 2.09331C34.9084 0.71131 31.3096 0 27.6753 0C24.0409 0 20.4421 0.711308 17.0844 2.09331C13.7267 3.47532 10.6758 5.50095 8.1059 8.05456C5.53601 10.6082 3.49747 13.6397 2.10666 16.9762C0.715843 20.3127 0 23.8886 0 27.5C0 31.1114 0.715841 34.6873 2.10665 38.0238C3.49747 41.3603 5.53601 44.3918 8.1059 46.9454C10.6758 49.499 13.7267 51.5247 17.0844 52.9067C20.4421 54.2887 24.0409 55 27.6753 55C30.8392 55 33.7638 54.725 37.0849 53.35C36.3576 52.5631 35.6475 52.0103 35.0548 51.0621C32.6568 51.7 30.1967 51.9255 27.6753 51.9255C24.4472 51.9255 21.2508 51.2937 18.2685 50.0662C15.2862 48.8387 12.5764 47.0395 10.2938 44.7714C8.01121 42.5033 6.20058 39.8107 4.96526 36.8472C3.72994 33.8838 3.09413 30.7076 3.09413 27.5C3.09413 24.2924 3.72994 21.1162 4.96526 18.1528C6.20058 15.1893 8.01121 12.4967 10.2938 10.2286C12.5764 7.96047 15.2862 6.16131 18.2685 4.93381Z" fill="black"/>
<path d="M53.9754 45.0932C53.9754 49.4326 50.4352 52.9503 46.0682 52.9503C41.7011 52.9503 38.1609 49.4326 38.1609 45.0932C38.1609 40.7538 41.7011 37.236 46.0682 37.236C50.4352 37.236 53.9754 40.7538 53.9754 45.0932Z" fill="black"/>
<path d="M80.0344 50.8242V53.0043H67.1587V36.0556H80.0052V38.2591H70.0199V43.4399H79.0125V45.5028H70.0199V50.8242H80.0344Z" fill="black"/>
<path d="M105.477 36.0556V53.0043H102.645L91.8421 39.7829V53.0043H88.9808V36.0556H91.8421L102.645 49.277V36.0556H105.477Z" fill="black"/>
<path d="M127.528 50.8242V53.0043H114.652V36.0556H127.499V38.2591H117.513V43.4399H126.506V45.5028H117.513V50.8242H127.528Z" fill="black"/>
<path d="M151.262 53.0043H148.021L144.254 46.2764H138.765V53.0043H135.904V36.0556H143.992C146.327 36.0556 148.118 36.501 149.364 37.3918C150.609 38.2826 151.232 39.5328 151.232 41.1425C151.232 42.3615 150.872 43.3852 150.152 44.2134C149.432 45.0417 148.429 45.6122 147.145 45.9247L151.262 53.0043ZM148.196 41.166C148.196 40.2283 147.826 39.4938 147.086 38.9624C146.366 38.4154 145.335 38.1419 143.992 38.1419H138.765V44.2134H143.992C145.393 44.2134 146.444 43.94 147.145 43.393C147.846 42.846 148.196 42.1037 148.196 41.166Z" fill="black"/>
<path d="M177.369 43.5336V53.0277H174.858L174.741 50.8242C174.06 51.6212 173.096 52.2307 171.85 52.6527C170.605 53.0746 169.252 53.2856 167.792 53.2856C166.352 53.3012 165.028 53.0981 163.821 52.6761C162.615 52.2385 161.573 51.6368 160.697 50.8711C159.821 50.0896 159.14 49.1676 158.654 48.1049C158.167 47.0265 157.933 45.8544 157.953 44.5885C157.933 43.3227 158.167 42.1505 158.654 41.0722C159.16 39.9782 159.86 39.0327 160.756 38.2357C161.67 37.4386 162.76 36.8213 164.026 36.3837C165.31 35.9462 166.721 35.7352 168.259 35.7508C170.439 35.7508 172.298 36.1571 173.836 36.9698C175.393 37.7668 176.473 38.8686 177.077 40.2752L174.536 41.166C174.03 40.072 173.223 39.2593 172.113 38.728C171.023 38.1966 169.748 37.9309 168.288 37.9309C167.159 37.9309 166.138 38.095 165.223 38.4232C164.308 38.7358 163.529 39.189 162.887 39.7829C162.245 40.3611 161.748 41.0644 161.398 41.8927C161.048 42.7053 160.872 43.6196 160.872 44.6354C160.872 45.6356 161.048 46.5421 161.398 47.3547C161.748 48.1518 162.235 48.8316 162.858 49.3942C163.5 49.9412 164.25 50.3631 165.106 50.6601C165.982 50.957 166.945 51.1055 167.996 51.1055C169.573 51.1055 171.043 50.7851 172.405 50.1443C173.748 49.488 174.507 48.3784 174.682 46.8155V45.5731H167.646V43.5336H177.369Z" fill="black"/>
<path d="M186.044 36.0556L191.445 43.8384L196.847 36.0556H200L192.876 46.0654V53.0043H189.986V46.0654L182.803 36.0556H186.044Z" fill="black"/>
</svg>
