<svg width="169" height="60" viewBox="0 0 169 40" fill="none" xmlns="http://www.w3.org/2000/svg">
<path d="M29.7597 37.0766L26.6416 39.3353H6.29129V26.5654H26.3551L29.7542 29.0389L31.0819 33.0605L29.7597 37.0766ZM34.3542 25.6839L31.0819 23.304L32.2498 22.4556L34.3873 15.8063L32.2443 9.15689L26.592 5.04716H0V44.9765H28.096L34.3873 40.4205L36.7561 33.055L34.3542 25.6839ZM6.29129 10.5672H24.8016L27.5561 12.5725L28.6083 15.8118L27.5561 19.0456L24.8016 21.0508H6.29129V10.5672ZM41.6426 45.0206V5.04716H47.7025V45.0206H41.6426ZM93.0197 44.971V15.5363H99.0796V44.971H93.0197ZM134.464 39.3518L117.595 39.3573L134.508 16.4398V15.5363H106.462V21.0729H123.898L106.506 44.1997V44.971L134.464 44.9655V39.3518ZM91.5648 4.93423L95.9863 0.512695L100.407 4.93423L95.9863 9.35521L91.5648 4.93423ZM80.663 15.5749L80.0625 18.6214L79.0599 17.2331L69.4852 14.137L60.0207 17.2331L54.115 25.3314V35.3412L59.9271 43.434L69.4632 46.53L79.0378 43.4395L79.9578 42.1614L80.4261 45.0095H85.2961V15.5969L80.663 15.5749ZM79.0488 33.4571L75.3743 38.5254L69.4632 40.4426L63.5244 38.5089L59.872 33.4737V27.2265L63.5244 22.1857L69.4632 20.2576L75.3743 22.1747L79.0488 27.2154V33.4571ZM169 32.9228V25.3038L163.171 17.1835L153.591 14.093L144.132 17.1835L138.243 25.3038V35.2916L144.061 43.3844L153.591 46.486L163.171 43.3899L167.546 39.3518L162.692 35.8976L159.508 38.4483L153.591 40.3654L147.658 38.4373L144.017 33.3965V32.9228H169ZM147.658 22.1416L153.591 20.208L159.508 22.1251L163.177 27.1659V27.7168H144.017V27.1659L147.658 22.1416Z" fill="black"/>
</svg>
