<?xml version="1.0" encoding="UTF-8"?>
<svg xmlns="http://www.w3.org/2000/svg" xmlns:xlink="http://www.w3.org/1999/xlink" width="50px" height="50px" viewBox="10 10 50 50" version="1.1">
<g id="surface1">
<path style="fill-rule:nonzero;fill:rgb(100%,100%,100%);fill-opacity:1;stroke-width:0.75;stroke-linecap:round;stroke-linejoin:round;stroke:rgb(0%,0%,0%);stroke-opacity:1;stroke-miterlimit:4;" d="M 11.3 20.4 C 11 20 10.7 19.3 10.1 18.4 C 9.8 17.9 8.9 16.9 8.6 16.5 C 8.4 16.1 8.4 15.9 8.5 15.5 C 8.6 14.9 9.2 14.4 9.9 14.4 C 10.4 14.4 10.9 14.8 11.3 15.1 C 11.5 15.3 11.8 15.7 12 15.9 C 12.2 16.1 12.2 16.2 12.4 16.4 C 12.6 16.7 12.7 16.9 12.6 16.5 C 12.5 16 12.4 15.2 12.2 14.4 C 12.1 13.8 12 13.7 11.9 13.3 C 11.8 12.8 11.7 12.5 11.6 12 C 11.5 11.7 11.4 10.9 11.3 10.5 C 11.2 10 11.2 9.1 11.6 8.7 C 11.9 8.4 12.5 8.3 12.9 8.5 C 13.4 8.8 13.7 9.5 13.8 9.8 C 14 10.3 14.2 11 14.3 11.8 C 14.5 12.8 14.8 14.3 14.8 14.6 C 14.8 14.2 14.7 13.5 14.8 13.1 C 14.9 12.8 15.1 12.4 15.5 12.3 C 15.8 12.2 16.1 12.2 16.4 12.2 C 16.7 12.3 17 12.5 17.2 12.7 C 17.6 13.3 17.6 14.6 17.6 14.5 C 17.7 14.1 17.7 13.3 17.9 12.9 C 18 12.7 18.4 12.5 18.6 12.4 C 18.9 12.3 19.3 12.3 19.6 12.4 C 19.8 12.4 20.2 12.7 20.3 12.9 C 20.5 13.2 20.6 14.2 20.7 14.6 C 20.7 14.7 20.8 14.2 21 13.9 C 21.4 13.3 22.8 13.1 22.9 14.5 C 22.9 15.2 22.9 15.1 22.9 15.6 C 22.9 16.1 22.9 16.4 22.9 16.8 C 22.9 17.2 22.8 18.1 22.7 18.5 C 22.6 18.8 22.3 19.5 22 19.9 C 22 19.9 20.9 21.1 20.8 21.7 C 20.7 22.3 20.7 22.3 20.7 22.7 C 20.7 23.1 20.8 23.6 20.8 23.6 C 20.8 23.6 20 23.7 19.6 23.6 C 19.2 23.5 18.7 22.8 18.6 22.5 C 18.4 22.2 18.1 22.2 17.9 22.5 C 17.7 22.9 17.2 23.6 16.8 23.6 C 16.1 23.7 14.7 23.6 13.7 23.6 C 13.7 23.6 13.9 22.6 13.5 22.2 C 13.2 21.9 12.7 21.4 12.4 21.1 Z M 11.3 20.4 " transform="matrix(1.5625,0,0,1.5625,0,0)"/>
<path style="fill:none;stroke-width:0.75;stroke-linecap:round;stroke-linejoin:miter;stroke:rgb(0%,0%,0%);stroke-opacity:1;stroke-miterlimit:4;" d="M 19.6 20.7 L 19.6 17.3 " transform="matrix(1.5625,0,0,1.5625,0,0)"/>
<path style="fill:none;stroke-width:0.75;stroke-linecap:round;stroke-linejoin:miter;stroke:rgb(0%,0%,0%);stroke-opacity:1;stroke-miterlimit:4;" d="M 17.6 20.7 L 17.5 17.3 " transform="matrix(1.5625,0,0,1.5625,0,0)"/>
<path style="fill:none;stroke-width:0.75;stroke-linecap:round;stroke-linejoin:miter;stroke:rgb(0%,0%,0%);stroke-opacity:1;stroke-miterlimit:4;" d="M 15.6 17.3 L 15.6 20.7 " transform="matrix(1.5625,0,0,1.5625,0,0)"/>
</g>
</svg>
