<svg width="551" height="702" viewBox="0 0 551 702" fill="none" xmlns="http://www.w3.org/2000/svg">
<rect x="414" width="137" height="702" fill="url(#paint0_linear_238_1144)"/>
<rect y="450" width="137" height="252" fill="url(#paint1_linear_238_1144)"/>
<rect x="138" y="272" width="137" height="430" fill="url(#paint2_linear_238_1144)"/>
<rect x="276" y="148" width="137" height="554" fill="url(#paint3_linear_238_1144)"/>
<rect x="414" y="317" width="137" height="385" fill="url(#paint4_linear_238_1144)"/>
<path d="M475.224 344H476.79V338.312H483.306V344H484.872V331.4H483.306V336.872H476.79V331.4H475.224V344ZM489.1 332.768C489.1 333.398 488.812 333.848 488.218 333.848H486.166V335.198H488.2C488.596 335.198 488.884 335.126 489.064 334.964V344H490.576V331.4H489.1V332.768Z" fill="black"/>
<defs>
<linearGradient id="paint0_linear_238_1144" x1="482.5" y1="0" x2="482.5" y2="702" gradientUnits="userSpaceOnUse">
<stop stop-color="#F4F9EC"/>
<stop offset="1" stop-color="#F4F9EC" stop-opacity="0"/>
</linearGradient>
<linearGradient id="paint1_linear_238_1144" x1="68.5" y1="450" x2="68.5" y2="702" gradientUnits="userSpaceOnUse">
<stop stop-color="#F4F9EC"/>
<stop offset="1" stop-color="#F4F9EC" stop-opacity="0"/>
</linearGradient>
<linearGradient id="paint2_linear_238_1144" x1="206.5" y1="272" x2="206.5" y2="702" gradientUnits="userSpaceOnUse">
<stop stop-color="#DDECC7"/>
<stop offset="1" stop-color="#DDECC7" stop-opacity="0"/>
</linearGradient>
<linearGradient id="paint3_linear_238_1144" x1="344.5" y1="148" x2="344.5" y2="702" gradientUnits="userSpaceOnUse">
<stop stop-color="#BBD98E"/>
<stop offset="1" stop-color="#BBD98E" stop-opacity="0"/>
</linearGradient>
<linearGradient id="paint4_linear_238_1144" x1="455.5" y1="347.5" x2="473" y2="741" gradientUnits="userSpaceOnUse">
<stop stop-color="#8DC043"/>
<stop offset="1" stop-color="#8DC043" stop-opacity="0"/>
</linearGradient>
</defs>
</svg>
