<?xml version="1.0" standalone="no"?>

<svg version="1.0" xmlns="http://www.w3.org/2000/svg"
 width="24.000000pt" height="24.000000pt" viewBox="0 0 24.000000 24.000000"
 preserveAspectRatio="xMidYMid meet"
 fill="#000000" stroke="none">

<g transform="translate(0.000000,24.000000) scale(0.100000,-0.100000)"
>
<path d="M3 224 c-3 -8 2 -23 11 -32 15 -15 17 -15 33 0 13 14 14 20 3 32 -16
20 -39 20 -47 0z"/>
<path d="M0 80 c0 -79 0 -80 25 -80 25 0 25 1 25 80 0 79 0 80 -25 80 -25 0
-25 -1 -25 -80z"/>
<path d="M80 80 c0 -79 0 -80 25 -80 23 0 25 4 25 43 0 50 19 83 44 74 12 -5
16 -20 16 -62 0 -52 1 -55 25 -55 24 0 25 3 25 61 0 78 -11 99 -53 99 -18 0
-38 -5 -45 -12 -9 -9 -12 -9 -12 0 0 7 -11 12 -25 12 -25 0 -25 -1 -25 -80z"/>
</g>
</svg>
