<svg width="31" height="31" viewBox="0 0 31 31" fill="none" xmlns="http://www.w3.org/2000/svg">
<path id="stroke_svg" d="M28.7034 0.00231153H2.28752C1.03906 -0.0117777 0.0152369 0.988294 0 2.23678V28.7628C0.0147152 30.0119 1.03845 31.0129 2.28752 30.9998H28.7034C29.9549 31.0153 30.9827 30.0143 31 28.7628V2.23486C30.9822 0.983914 29.9543 -0.0161008 28.7034 0.000196399" fill="black"/>
<path  d="M21.8202 26.4139H26.4135L26.4154 18.299C26.4154 14.3153 25.557 11.253 20.9016 11.253C19.1219 11.187 17.45 12.1052 16.5509 13.6425H16.4892V11.621H12.0797V26.4134H16.6729V19.0957C16.6729 17.166 17.039 15.2971 19.4313 15.2971C21.7896 15.2971 21.8202 17.5052 21.8202 19.2205V26.4139Z" fill="#FFCB11"/>
<path   d="M4.23102 6.93387C4.23128 8.40602 5.42489 9.59922 6.89701 9.59896C7.60394 9.59883 8.28187 9.31787 8.78166 8.81789C9.28146 8.31791 9.56216 7.63986 9.56204 6.93291C9.56177 5.46076 8.36817 4.26756 6.89605 4.26782C5.42393 4.26809 4.23075 5.46172 4.23102 6.93387Z" fill="#FFCB11"/>
<path  d="M4.59561 26.4139H9.19362V11.621H4.59561V26.4139Z" fill="#FFCB11"/>
</svg>
