<svg width="31" height="31" viewBox="0 0 31 31" fill="none" xmlns="http://www.w3.org/2000/svg">
<path id="stroke_svg" d="M28.7034 0.00231153H2.28752C1.03906 -0.0117777 0.0152369 0.988294 0 2.23678V28.7628C0.0147152 30.0119 1.03845 31.0129 2.28752 30.9998H28.7034C29.9549 31.0153 30.9827 30.0143 31 28.7628V2.23486C30.9822 0.983914 29.9543 -0.0161008 28.7034 0.000196399" fill="white"/>
<path d="M21.8203 26.4137H26.4135L26.4154 18.2988C26.4154 14.315 25.5571 11.2528 20.9016 11.2528C19.1219 11.1867 17.4501 12.1049 16.551 13.6423H16.4893V11.6207H12.0798V26.4132H16.673V19.0954C16.673 17.1657 17.039 15.2968 19.4313 15.2968C21.7897 15.2968 21.8203 17.505 21.8203 19.2203V26.4137Z" fill="black"/>
<path d="M4.23108 6.93362C4.23134 8.40578 5.42495 9.59898 6.89707 9.59871C7.604 9.59859 8.28194 9.31763 8.78173 8.81765C9.28152 8.31767 9.56222 7.63962 9.5621 6.93267C9.56183 5.46051 8.36823 4.26731 6.89611 4.26758C5.42399 4.26784 4.23081 5.46147 4.23108 6.93362Z" fill="black"/>
<path d="M4.59567 26.4137H9.19368V11.6207H4.59567V26.4137Z" fill="black"/>
</svg>
