<?xml version="1.0" standalone="no"?>

<svg id="basic_stroke_svg" version="1.0" xmlns="http://www.w3.org/2000/svg"
 width="40.000000pt" height="37.000000pt" viewBox="0 0 40.000000 37.000000"
 preserveAspectRatio="xMidYMid meet"
 fill="#000000" stroke="none">

<g transform="translate(0.000000,37.000000) scale(0.100000,-0.100000)"
>
<path d="M215 358 c-2 -7 -8 -33 -12 -57 -8 -42 -10 -44 -58 -58 -28 -8 -67
-15 -88 -17 -51 -2 -77 -47 -44 -74 7 -6 14 -23 15 -38 5 -57 90 -114 172
-114 82 0 167 57 172 114 1 15 8 32 15 38 33 27 7 72 -44 75 -21 1 -60 8 -86
15 -46 12 -47 14 -42 43 13 63 15 65 43 59 15 -4 32 -13 38 -20 15 -18 50 -18
57 0 3 8 -1 22 -8 33 -11 15 -17 16 -34 6 -13 -9 -29 -9 -53 -3 -41 12 -38 12
-43 -2z m-60 -208 c0 -18 -6 -26 -23 -28 -13 -2 -25 3 -28 12 -10 26 4 48 28
44 17 -2 23 -10 23 -28z m140 0 c0 -18 -6 -26 -23 -28 -13 -2 -25 3 -28 12
-10 26 4 48 28 44 17 -2 23 -10 23 -28z m-95 -90 c17 0 40 5 51 10 12 7 19 7
19 1 0 -16 -35 -31 -70 -31 -35 0 -70 15 -70 31 0 6 7 6 19 -1 11 -5 34 -10
51 -10z"/>
</g>
</svg>
