<?xml version="1.0" standalone="no"?>

<svg id="basic_stroke_svg" version="1.0" xmlns="http://www.w3.org/2000/svg"
 width="42.000000pt" height="24.000000pt" viewBox="0 0 42.000000 24.000000"
 preserveAspectRatio="xMidYMid meet"
 fill="#000000" stroke="none">

<g transform="translate(0.000000,24.000000) scale(0.100000,-0.100000)"
>
<path d="M75 230 c-44 -18 -70 -59 -70 -111 0 -41 5 -53 31 -80 62 -61 157
-42 191 39 13 32 14 42 2 77 -23 65 -94 100 -154 75z"/>
<path d="M274 209 c-27 -30 -27 -148 0 -178 45 -49 91 -4 91 89 0 93 -46 138
-91 89z"/>
<path d="M384 185 c-7 -41 -1 -151 9 -161 12 -12 17 1 24 54 6 57 -4 142 -17
142 -5 0 -12 -16 -16 -35z"/>
</g>
</svg>
