<svg width="47" height="28" viewBox="0 0 47 28" fill="none" xmlns="http://www.w3.org/2000/svg" >
<path id="stroke_svg" d="M8.39062 16.0814L12.0346 26.1619C12.0346 26.1619 12.4902 27.1051 12.9781 27.1051C13.4659 27.1051 20.722 19.5607 20.722 19.5607L28.7909 3.98438L8.52065 13.4793L8.39062 16.0814Z" fill="white"/>
<path  id="stroke_svg" d="M13.2225 18.666L12.523 26.0963C12.523 26.0963 12.2302 28.373 14.5077 26.0963C16.7851 23.8196 18.9651 22.064 18.9651 22.064" fill="white"/>
<path  id="stroke_svg" d="M8.27375 16.4412L0.777888 14.0003C0.777888 14.0003 -0.117949 13.637 0.17051 12.8133C0.229891 12.6435 0.349677 12.4989 0.708012 12.2505C2.3689 11.0935 31.4496 0.64694 31.4496 0.64694C31.4496 0.64694 32.2707 0.370408 32.7549 0.554337C32.8747 0.5914 32.9825 0.659604 33.0673 0.75197C33.1521 0.844336 33.2108 0.957548 33.2374 1.08003C33.2897 1.29636 33.3116 1.51893 33.3024 1.7413C33.3001 1.93367 33.2768 2.11197 33.2592 2.39157C33.082 5.2477 27.7818 26.5639 27.7818 26.5639C27.7818 26.5639 27.4646 27.8113 26.3285 27.854C26.0492 27.863 25.7711 27.8157 25.5105 27.715C25.25 27.6143 25.0124 27.4621 24.8119 27.2677C22.5823 25.3509 14.8761 20.1748 13.1732 19.0364C13.1348 19.0103 13.1025 18.9762 13.0783 18.9365C13.0542 18.8968 13.0389 18.8523 13.0335 18.8062C13.0097 18.6862 13.1402 18.5376 13.1402 18.5376C13.1402 18.5376 26.5588 6.61681 26.9159 5.36538C26.9435 5.26842 26.8391 5.22059 26.6988 5.26305C25.8076 5.59075 10.3577 15.342 8.65256 16.4182C8.52982 16.4553 8.40008 16.4632 8.27375 16.4412Z" fill="white"/>
<rect id="stroke_svg" x="25" y="3" width="22" height="12" rx="6" fill="#C4C4C4"/>
<path d="M30.2797 11.648C31.2717 11.648 31.9357 11.088 32.0957 10.208H31.3997C31.2717 10.728 30.8717 11.064 30.2877 11.064C29.5037 11.064 28.9757 10.456 28.9757 9.568C28.9757 8.68 29.5037 8.056 30.2877 8.056C30.8877 8.056 31.2877 8.384 31.4077 8.928H32.0957C31.9277 8.032 31.2957 7.472 30.2957 7.472C29.1117 7.472 28.3037 8.32 28.3037 9.568C28.3037 10.84 29.0877 11.648 30.2797 11.648Z" fill="black"/>
<path d="M34.8149 7.472C34.1269 7.472 33.7109 7.808 33.4709 8.192V6H32.8149V11.6H33.4709V9.56C33.4709 8.64 33.9429 8.072 34.7029 8.072C35.4069 8.072 35.8149 8.52 35.8149 9.368V11.6H36.4709V9.328C36.4709 7.976 35.7269 7.472 34.8149 7.472Z" fill="black"/>
<path d="M40.9151 11C40.7311 11 40.6511 10.944 40.6511 10.728V8.944C40.6511 7.992 40.0511 7.472 39.0111 7.472C38.0271 7.472 37.3791 7.944 37.2831 8.744H37.9391C38.0191 8.328 38.4031 8.056 38.9791 8.056C39.6191 8.056 39.9951 8.376 39.9951 8.904V9.184H38.7951C37.7231 9.184 37.1551 9.64 37.1551 10.456C37.1551 11.2 37.7631 11.648 38.6591 11.648C39.3631 11.648 39.7711 11.336 40.0271 10.968C40.0351 11.368 40.2191 11.6 40.7631 11.6H41.1231V11H40.9151ZM39.9951 9.936C39.9951 10.616 39.5231 11.088 38.7071 11.088C38.1631 11.088 37.8191 10.816 37.8191 10.416C37.8191 9.952 38.1471 9.736 38.7311 9.736H39.9951V9.936Z" fill="black"/>
<path d="M41.9314 10.536C41.9314 11.256 42.2114 11.6 42.9954 11.6H43.7074V11H43.0594C42.7074 11 42.5874 10.872 42.5874 10.528V8.12H43.6434V7.52H42.5874V6.376H41.9314V7.52H41.1954V8.12H41.9314V10.536Z" fill="black"/>
</svg>
