<?xml version="1.0" standalone="no"?>

<svg id="basic_stroke_svg" version="1.0" xmlns="http://www.w3.org/2000/svg"
 width="33.000000pt" height="27.000000pt" viewBox="0 0 33.000000 27.000000"
 preserveAspectRatio="xMidYMid meet"
 fill="#000000" stroke="none">

<g transform="translate(0.000000,27.000000) scale(0.100000,-0.100000)"
>
<path d="M181 245 c-11 -15 -21 -34 -21 -43 0 -21 -54 -9 -101 23 -31 20 -38
22 -43 9 -3 -9 -1 -25 5 -37 9 -15 9 -22 1 -25 -13 -4 5 -52 19 -52 5 0 6 -6
3 -14 -3 -7 7 -23 22 -35 l26 -21 -27 -10 c-14 -5 -34 -10 -43 -11 -34 -1 44
-28 83 -29 86 -1 163 64 185 154 6 23 15 49 20 59 7 12 7 17 -1 17 -9 0 -9 4
0 14 9 10 6 13 -16 14 -16 0 -42 4 -59 7 -26 6 -35 3 -53 -20z"/>
</g>
</svg>
